<?xml version="1.0" encoding="iso-8859-1"?>
<!-- Generator: Adobe Illustrator 19.0.0, SVG Export Plug-In . SVG Version: 6.00 Build 0)  -->
<svg xmlns="http://www.w3.org/2000/svg" xmlns:xlink="http://www.w3.org/1999/xlink" version="1.1" id="Layer_1" x="0px" y="0px" viewBox="0 0 480 480" style="enable-background:new 0 0 480 480;" xml:space="preserve" width="512px" height="512px">
<g>
	<g>
		<path d="M368,0H112C89.944,0,72,17.944,72,40v400c0,22.056,17.944,40,40,40h256c22.056,0,40-17.944,40-40V40    C408,17.944,390.056,0,368,0z M392,440c0,13.232-10.768,24-24,24H112c-13.232,0-24-10.768-24-24v-24h304V440z M392,400H88V64h304    V400z M392,48H88v-8c0-13.232,10.768-24,24-24h256c13.232,0,24,10.768,24,24V48z" fill="#FFFFFF"/>
	</g>
</g>
<g>
	<g>
		<path d="M352.968,265.536L327.6,240.168c-9.056-9.064-24.872-9.08-33.944,0l-15.032,15.024l-76.688-76.688l15.032-15.024    c9.36-9.36,9.36-24.584,0-33.944l-25.376-25.368c-9.064-9.064-24.864-9.072-33.936,0L142.224,119.6    c-28.064,28.072-28.064,73.744,0,101.824l93.496,93.488C249.312,328.512,267.4,336,286.624,336    c19.232,0,37.32-7.488,50.912-21.088l15.432-15.432C362.328,290.12,362.328,274.896,352.968,265.536z M341.656,288.16    l-15.432,15.432c-10.576,10.576-24.64,16.4-39.6,16.4c-14.952,0-29.016-5.824-39.592-16.4l-93.496-93.48    c-21.824-21.84-21.824-57.368,0-79.2l15.432-15.432c1.512-1.512,3.52-2.344,5.656-2.344c2.144,0,4.144,0.832,5.648,2.336    c0.008,0,0.008,0,0.008,0l25.376,25.368c3.12,3.12,3.12,8.192,0,11.32l-20.688,20.68c-1.504,1.504-2.344,3.536-2.344,5.656    c0,2.12,0.84,4.16,2.344,5.656l88,88c3.128,3.128,8.184,3.128,11.312,0l20.688-20.68c3.04-3.024,8.288-3.016,11.312,0    l25.376,25.368C344.776,279.96,344.776,285.032,341.656,288.16z" fill="#FFFFFF"/>
	</g>
</g>
<g>
	<g>
		<rect x="232" y="352" width="16" height="16" fill="#FFFFFF"/>
	</g>
</g>
<g>
	<g>
		<rect x="200" y="352" width="16" height="16" fill="#FFFFFF"/>
	</g>
</g>
<g>
	<g>
		<rect x="264" y="352" width="16" height="16" fill="#FFFFFF"/>
	</g>
</g>
<g>
	<g>
		<path d="M240,176v16c13.232,0,24,10.768,24,24h16C280,193.944,262.056,176,240,176z" fill="#FFFFFF"/>
	</g>
</g>
<g>
	<g>
		<path d="M240,144v16c30.872,0,56,25.12,56,56h16C312,176.304,279.704,144,240,144z" fill="#FFFFFF"/>
	</g>
</g>
<g>
	<g>
		<path d="M240,112v16c48.52,0,88,39.48,88,88h16C344,158.656,297.344,112,240,112z" fill="#FFFFFF"/>
	</g>
</g>
<g>
</g>
<g>
</g>
<g>
</g>
<g>
</g>
<g>
</g>
<g>
</g>
<g>
</g>
<g>
</g>
<g>
</g>
<g>
</g>
<g>
</g>
<g>
</g>
<g>
</g>
<g>
</g>
<g>
</g>
</svg>
