<?xml version="1.0" encoding="iso-8859-1"?>
<!-- Generator: Adobe Illustrator 19.0.0, SVG Export Plug-In . SVG Version: 6.00 Build 0)  -->
<svg xmlns="http://www.w3.org/2000/svg" xmlns:xlink="http://www.w3.org/1999/xlink" version="1.1" id="Layer_1" x="0px" y="0px" viewBox="0 0 485.32 485.32" style="enable-background:new 0 0 485.32 485.32;" xml:space="preserve" width="512px" height="512px">
<g>
	<g>
		<path d="M117.973,200l-29.656-29.656C86.821,168.84,84.781,168,82.661,168h-72c-3.232,0-6.152,1.944-7.392,4.936    c-1.24,2.992-0.552,6.432,1.736,8.72L31.349,208L5.005,234.344c-2.288,2.288-2.976,5.728-1.736,8.72    c1.24,2.992,4.16,4.936,7.392,4.936h72c2.12,0,4.16-0.84,5.656-2.344L117.973,216h156.688v-16H117.973z M79.349,232H29.973    l18.344-18.344c3.128-3.128,3.128-8.184,0-11.312L29.973,184h49.376l24,24L79.349,232z" fill="#FFFFFF"/>
	</g>
</g>
<g>
	<g>
		<path d="M274.661,48c-79.032,0-145.408,56.664-157.832,134.744l15.808,2.512C143.813,114.992,203.541,64,274.661,64    c79.4,0,144,64.6,144,144s-64.6,144-144,144c-71.12,0-130.848-50.992-142.024-121.256l-15.808,2.512    C129.253,311.336,195.629,368,274.661,368c88.224,0,160-71.776,160-160S362.885,48,274.661,48z" fill="#FFFFFF"/>
	</g>
</g>
<g>
	<g>
		<path d="M274.661,80c-60.632,0-113.384,43.072-125.432,102.408l15.68,3.184C175.453,133.68,221.605,96,274.661,96    c61.76,0,112,50.24,112,112s-50.24,112-112,112c-53.056,0-99.208-37.68-109.752-89.592l-15.68,3.184    C161.277,292.928,214.029,336,274.661,336c70.576,0,128-57.424,128-128S345.237,80,274.661,80z" fill="#FFFFFF"/>
	</g>
</g>
<g>
	<g>
		<path d="M274.661,136c-29.456,0-55.648,17.664-66.72,44.992l14.832,6.016C231.389,165.744,251.757,152,274.661,152    c30.88,0,56,25.128,56,56s-25.12,56-56,56c-22.904,0-43.272-13.744-51.888-35.008l-14.832,6.016    C219.013,262.336,245.205,280,274.661,280c39.696,0,72-32.296,72-72C346.661,168.296,314.357,136,274.661,136z" fill="#FFFFFF"/>
	</g>
</g>
<g>
	<g>
		<path d="M274.661,168c-9.56,0-18.872,3.544-26.232,9.976l10.528,12.048c3.144-2.752,8.424-6.024,15.704-6.024    c13.232,0,24,10.768,24,24s-10.768,24-24,24c-7.28,0-12.56-3.272-15.696-6.024l-10.528,12.048    c7.352,6.432,16.664,9.976,26.224,9.976c22.056,0,40-17.944,40-40C314.661,185.944,296.717,168,274.661,168z" fill="#FFFFFF"/>
	</g>
</g>
<g>
	<g>
		<path d="M482.661,208c0-114.696-93.312-208-208-208c-91.888,0-174,61.584-199.672,149.768l15.36,4.472    C114.045,72.84,189.837,16,274.661,16c105.864,0,192,86.136,192,192s-86.136,192-192,192c-84.824,0-160.616-56.84-184.32-138.232    l-15.36,4.472c15.136,51.976,49.968,94.584,94.76,120.912l-28.888,63.544c-3.016,6.632-2.928,14.192,0.232,20.76    c3.16,6.568,9.032,11.344,16.112,13.12c2.016,0.496,4.032,0.744,6.016,0.744c9.096,0,17.56-5.072,21.8-13.544l32.08-64.152    c18.456,5.352,37.752,8.376,57.568,8.376c20.416,0,40.136-3.008,58.8-8.52l32.136,64.272c4.24,8.48,12.704,13.544,21.8,13.544    c1.992,0,4.008-0.24,6.024-0.752c7.072-1.768,12.944-6.544,16.104-13.112c3.168-6.552,3.248-14.128,0.232-20.76l-29.024-63.864    C441.701,350.52,482.661,283.968,482.661,208z M170.717,464.6c-1.792,3.576-5.792,5.376-9.624,4.44    c-2.488-0.624-4.472-2.232-5.584-4.544c-1.112-2.304-1.144-4.848-0.08-7.176l28.44-62.576c5.84,2.856,11.808,5.432,17.912,7.744    L170.717,464.6z M395.197,457.312c1.056,2.328,1.024,4.88-0.08,7.176c-1.112,2.312-3.096,3.92-5.568,4.536    c-3.888,1.016-7.84-0.848-9.64-4.432l-31.144-62.296c6.104-2.336,12.072-4.936,17.88-7.816L395.197,457.312z" fill="#FFFFFF"/>
	</g>
</g>
<g>
	<g>
		<rect x="298.661" y="432" width="16" height="16" fill="#FFFFFF"/>
	</g>
</g>
<g>
	<g>
		<rect x="266.661" y="432" width="16" height="16" fill="#FFFFFF"/>
	</g>
</g>
<g>
	<g>
		<rect x="234.661" y="432" width="16" height="16" fill="#FFFFFF"/>
	</g>
</g>
<g>
</g>
<g>
</g>
<g>
</g>
<g>
</g>
<g>
</g>
<g>
</g>
<g>
</g>
<g>
</g>
<g>
</g>
<g>
</g>
<g>
</g>
<g>
</g>
<g>
</g>
<g>
</g>
<g>
</g>
</svg>
